Coordinates
version=1
nRows=21
nColumns=12
inDegrees=yes

Units are S.I. units (second, meters, Newtons, ...)
Angles are in degrees

endheader
time	SC_y	SC_z	SC_x	AC_y	AC_z	AC_x	GH_y	GH_z	GH_yy	EL_x	PS_y
       0.0              -42.57          17.71          75.91          61.76         -4.666         -14.71         -27.05         -19.14          34.54          15.02          107.0
   0.03202              -42.57          17.71           75.9          61.76         -4.666         -14.71         -27.05         -19.14          34.55          15.03          107.0
   0.06405              -42.56          17.71          75.89          61.75         -4.666         -14.71         -27.04         -19.13          34.57          15.05          107.0
   0.09607              -42.56          17.71          75.88          61.75         -4.666          -14.7         -27.04         -19.12          34.59          15.06          107.0
    0.1281              -42.56          17.71          75.87          61.75         -4.667          -14.7         -27.04         -19.11          34.62          15.08          107.0
    0.1601              -42.55          17.72          75.85          61.74         -4.667         -14.69         -27.03          -19.1          34.64          15.09          107.0
    0.1921              -42.55          17.72          75.84          61.74         -4.667         -14.69         -27.03         -19.09          34.66          15.11          107.0
    0.2242              -42.54          17.72          75.82          61.74         -4.667         -14.68         -27.02         -19.08          34.69          15.13          107.0
    0.2562              -42.54          17.73          75.81          61.73         -4.667         -14.68         -27.02         -19.07          34.72          15.15          107.0
    0.2882              -42.53          17.73          75.79          61.73         -4.668         -14.67         -27.01         -19.05          34.75          15.17          107.0
    0.3202              -42.53          17.73          75.77          61.72         -4.668         -14.67         -27.01         -19.04          34.78          15.19          107.0
    0.3523              -42.52          17.74          75.75          61.72         -4.668         -14.66          -27.0         -19.03          34.82          15.21          107.0
    0.3843              -42.52          17.74          75.73          61.71         -4.669         -14.65          -27.0         -19.01          34.86          15.24          107.0
    0.4163              -42.51          17.75           75.7           61.7         -4.669         -14.64         -26.99         -18.99           34.9          15.27          107.0
    0.4483               -42.5          17.75          75.68           61.7         -4.669         -14.63         -26.98         -18.97          34.94           15.3          107.0
    0.4804              -42.49          17.76          75.65          61.69          -4.67         -14.62         -26.97         -18.95          34.99          15.33          107.0
    0.5124              -42.49          17.77          75.62          61.68          -4.67         -14.61         -26.97         -18.93          35.05          15.37          107.0
    0.5444              -42.48          17.77          75.58          61.67         -4.671          -14.6         -26.96         -18.91           35.1           15.4          107.0
    0.5764              -42.47          17.78          75.55          61.66         -4.671         -14.59         -26.95         -18.88          35.17          15.45          107.0
    0.6084              -42.46          17.79          75.51          61.65         -4.672         -14.58         -26.93         -18.85          35.24          15.49          107.0
    0.6405              -42.44           17.8          75.46          61.64         -4.672         -14.56         -26.92         -18.82          35.31          15.54          107.0
